<svg width="40" height="40" viewBox="0 0 40 40" fill="none" xmlns="http://www.w3.org/2000/svg">
<rect width="40" height="40" rx="10" fill="#FF3E41"/>
<path fill-rule="evenodd" clip-rule="evenodd" d="M13.6909 17.7438L11.8333 14.8413L13.7986 13.5835L15.3211 15.9624H27.537L24.037 22.9624H16.8221L13.6909 17.7438ZM16.7432 18.2957L18.1432 20.6291H22.5949L23.7616 18.2957H16.7432Z" fill="white"/>
<path d="M19.816 25.8791C19.816 26.8456 19.0325 27.6291 18.066 27.6291C17.0995 27.6291 16.316 26.8456 16.316 25.8791C16.316 24.9126 17.0995 24.1291 18.066 24.1291C19.0325 24.1291 19.816 24.9126 19.816 25.8791Z" fill="white"/>
<path d="M22.7326 27.6291C23.6991 27.6291 24.4826 26.8456 24.4826 25.8791C24.4826 24.9126 23.6991 24.1291 22.7326 24.1291C21.7661 24.1291 20.9826 24.9126 20.9826 25.8791C20.9826 26.8456 21.7661 27.6291 22.7326 27.6291Z" fill="white"/>
</svg>
