<svg width="35" height="32" viewBox="0 0 35 32" fill="none" xmlns="http://www.w3.org/2000/svg">
<path fill-rule="evenodd" clip-rule="evenodd" d="M9.1494 12.7285L5.8568 7.19995H8.8L10.7198 10.4H26.0662L21.7735 18.6926H12.6937L9.1494 12.7285ZM12.345 13.0666L14.2377 16.026H20.1254L21.7515 13.0666H12.345Z" fill="white"/>
<path d="M16.1495 22.826C16.1495 23.9305 15.2541 24.826 14.1495 24.826C13.0449 24.826 12.1495 23.9305 12.1495 22.826C12.1495 21.7214 13.0449 20.826 14.1495 20.826C15.2541 20.826 16.1495 21.7214 16.1495 22.826Z" fill="white"/>
<path d="M19.4828 24.826C20.5874 24.826 21.4828 23.9305 21.4828 22.826C21.4828 21.7214 20.5874 20.826 19.4828 20.826C18.3782 20.826 17.4828 21.7214 17.4828 22.826C17.4828 23.9305 18.3782 24.826 19.4828 24.826Z" fill="white"/>
<circle cx="32" cy="3" r="3" fill="#FF3E41"/>
</svg>
