<svg width="16" height="16" viewBox="0 0 16 16" fill="none" xmlns="http://www.w3.org/2000/svg">
<path fill-rule="evenodd" clip-rule="evenodd" d="M6.6364 7.47799C6.45821 7.65618 6.26739 7.81405 6.06683 7.95158C6.35493 8.33045 6.66244 8.68254 6.98996 9.01005C7.31747 9.33757 7.66956 9.64508 8.04843 9.93319C8.18597 9.73262 8.34383 9.5418 8.52202 9.36361C10.0841 7.80151 12.6168 7.80151 14.1789 9.36361C15.104 10.2887 15.5241 11.5619 15.3534 12.7646C15.3391 12.7621 15.3677 12.7671 15.3534 12.7646L14.89 15.3907C10.7263 14.6559 7.48671 13.278 5.10434 10.8957C2.72197 8.5133 1.34408 5.27372 0.609314 1.11004L3.2354 0.646614C3.23287 0.632358 3.23793 0.660903 3.2354 0.646614C4.43815 0.475959 5.71128 0.896011 6.6364 1.82114C8.1985 3.38323 8.1985 5.91589 6.6364 7.47799ZM3.8473 3.31681C4.09341 4.16205 4.37699 4.93437 4.6999 5.64069C4.71718 5.62512 4.73415 5.60901 4.75079 5.59237C5.27149 5.07167 5.27149 4.22745 4.75079 3.70676C4.50044 3.45641 4.17531 3.32642 3.8473 3.31681ZM12.6832 12.1527C12.6736 11.8247 12.5436 11.4996 12.2933 11.2492C11.7726 10.7285 10.9283 10.7285 10.4076 11.2492C10.391 11.2659 10.3749 11.2828 10.3593 11.3001C11.0656 11.623 11.838 11.9066 12.6832 12.1527Z" fill="white"/>
</svg>
