<svg width="32" height="32" viewBox="0 0 32 32" fill="none" xmlns="http://www.w3.org/2000/svg">
<path fill-rule="evenodd" clip-rule="evenodd" d="M19.6529 22.2053C18.519 22.8216 17.2195 23.1716 15.8382 23.1716C11.4199 23.1716 7.83821 19.5899 7.83821 15.1716C7.83821 10.7534 11.4199 7.17163 15.8382 7.17163C20.2565 7.17163 23.8382 10.7534 23.8382 15.1716C23.8382 17.2403 23.0531 19.1255 21.7645 20.5456L24.3905 23.1716L22.5049 25.0572L19.6529 22.2053ZM21.1715 15.1716C21.1715 18.1171 18.7837 20.505 15.8382 20.505C12.8927 20.505 10.5049 18.1171 10.5049 15.1716C10.5049 12.2261 12.8927 9.8383 15.8382 9.8383C18.7837 9.8383 21.1715 12.2261 21.1715 15.1716Z" fill="#CBCECF"/>
</svg>
