<svg width="32" height="32" viewBox="0 0 32 32" fill="none" xmlns="http://www.w3.org/2000/svg">
<path fill-rule="evenodd" clip-rule="evenodd" d="M20.4459 18.9681C21.8089 17.7475 22.6667 15.974 22.6667 14.0003C22.6667 10.3184 19.6819 7.33362 16 7.33362C12.3181 7.33362 9.33333 10.3184 9.33333 14.0003C9.33333 15.974 10.1911 17.7475 11.5541 18.9681C9.54028 19.8928 7.86397 21.4262 6.76086 23.3327L9.07064 24.6663C10.454 22.2755 13.0391 20.667 16 20.667C18.9609 20.667 21.546 22.2754 22.9294 24.6663L25.2391 23.3327C24.136 21.4262 22.4597 19.8928 20.4459 18.9681ZM20 14.0003C20 16.2094 18.2091 18.0003 16 18.0003C13.7909 18.0003 12 16.2094 12 14.0003C12 11.7911 13.7909 10.0003 16 10.0003C18.2091 10.0003 20 11.7911 20 14.0003Z" fill="#CBCECF"/>
</svg>
